<?xml version="1.0" standalone="no"?>
<!DOCTYPE svg PUBLIC "-//W3C//DTD SVG 20010904//EN"
 "http://www.w3.org/TR/2001/REC-SVG-20010904/DTD/svg10.dtd">
<svg version="1.0" xmlns="http://www.w3.org/2000/svg"
 width="500.000000pt" height="500.000000pt" viewBox="0 0 500.000000 500.000000"
 preserveAspectRatio="xMidYMid meet">

<g transform="translate(0.000000,500.000000) scale(0.100000,-0.100000)"
fill="#000000" stroke="none">
<path d="M1918 3283 l-3 -118 -835 -5 c-778 -5 -838 -6 -863 -23 -17 -11 -27
-26 -27 -41 0 -43 70 -229 135 -361 269 -540 773 -855 1467 -916 130 -11 134
-12 160 -43 54 -61 83 -134 87 -218 3 -70 0 -84 -28 -143 -37 -79 -117 -164
-219 -230 l-72 -46 0 -164 0 -165 314 0 315 0 81 55 c91 60 151 86 285 120
286 73 635 16 840 -137 l49 -38 288 0 288 0 0 159 0 160 -73 55 c-498 375
-543 949 -106 1360 175 165 380 270 707 362 9 3 12 61 12 249 l0 245 -1400 0
-1399 0 -3 -117z m601 -421 c20 -10 50 -38 66 -61 28 -40 30 -49 33 -157 3
-85 0 -126 -12 -162 -30 -90 -121 -171 -211 -188 -22 -5 -43 -7 -47 -6 -28 7
11 -32 147 -149 85 -73 155 -135 155 -139 0 -3 -56 -4 -125 -3 l-125 2 -167
146 -167 146 -54 -2 -54 -3 0 80 0 79 211 5 211 5 36 36 c34 34 37 43 42 107
2 39 2 82 -2 96 l-6 26 -278 -2 -277 -3 -2 -358 -2 -359 -78 0 -78 0 -3 413
c-2 442 -2 449 48 467 10 4 173 6 361 5 311 -2 345 -4 378 -21z m988 -7 c56
-28 105 -82 138 -150 26 -55 30 -230 8 -298 -22 -65 -82 -130 -151 -164 l-57
-28 -218 0 -219 0 0 78 0 77 194 3 c214 2 248 10 281 67 41 69 30 184 -23 243
l-28 32 -224 3 c-184 2 -227 0 -243 -12 -19 -14 -20 -29 -25 -361 l-5 -346
-78 -2 -77 -2 0 360 c0 399 2 406 68 469 58 54 101 61 366 59 236 -2 241 -3
293 -28z"/>
</g>
</svg>
